<?xml version="1.0" encoding="utf-8"?>
<!-- Generator: Adobe Illustrator 23.1.1, SVG Export Plug-In . SVG Version: 6.00 Build 0)  -->
<svg version="1.1" id="Capa_1" xmlns="http://www.w3.org/2000/svg" xmlns:xlink="http://www.w3.org/1999/xlink" x="0px" y="0px"
	 viewBox="0 0 457.2 457.2" style="enable-background:new 0 0 457.2 457.2;" xml:space="preserve">
<style type="text/css">
	.st0{fill:#104673;}
	.st1{fill:none;}
	.st2{fill:#DE5F26;}
	.st3{font-family:'Silom';}
	.st4{font-size:72px;}
</style>
<g>
	<path class="st0" d="M335.8,261.5H315c-3.9-20.8-12.3-40.4-24.6-57.6l14.5-14.5c1.4-1.4,2.2-3.3,2.2-5.3c0-2-0.8-3.9-2.2-5.3
		l-25.3-25.3c-2.9-2.9-7.7-2.9-10.6,0L254,168.3c-17-11.6-36.3-19.5-56.5-23.1V124c0-4.2-3.4-7.5-7.5-7.5h-35.8
		c-4.2,0-7.5,3.4-7.5,7.5v21.2c-20.3,3.6-39.8,11.6-56.9,23.4l-14.5-14.5c-2.9-2.9-7.7-2.9-10.6,0l-25.3,25.3
		c-1.4,1.4-2.2,3.3-2.2,5.3c0,2,0.8,3.9,2.2,5.3l14.2,14.2c-12.1,17.1-20.5,36.6-24.3,57.2h-19c-4.2,0-7.5,3.4-7.5,7.5v35.8
		c0,4.2,3.4,7.5,7.5,7.5h18.4C32,333,40,352.9,52,370.4l-13.3,13.3c-2.9,2.9-2.9,7.7,0,10.6l25.3,25.3c1.4,1.4,3.3,2.2,5.3,2.2
		c2,0,3.9-0.8,5.3-2.2l12.9-12.9c17.6,12.6,37.9,21.2,59.2,24.9v18c0,4.2,3.4,7.5,7.5,7.5H190c4.2,0,7.5-3.4,7.5-7.5v-18
		c21.1-3.7,41.2-12.2,58.8-24.7l13.3,13.3c2.8,2.8,7.8,2.8,10.6,0l25.3-25.3c2.9-2.9,2.9-7.7,0-10.6l-13.6-13.6
		c12.1-17.6,20.2-37.6,23.7-58.5h20.3c4.2,0,7.5-3.4,7.5-7.5V269C343.4,264.8,340,261.5,335.8,261.5z M173,366.2
		c-43.8,0-79.4-35.5-79.4-79.4c0-43.8,35.5-79.4,79.4-79.4c43.8,0,79.4,35.5,79.4,79.4C252.4,330.7,216.9,366.2,173,366.2z
		 M203.1,286.9c0,16.6-13.5,30.1-30.1,30.1c-16.6,0-30.1-13.5-30.1-30.1c0-16.6,13.5-30.1,30.1-30.1
		C189.7,256.8,203.1,270.2,203.1,286.9z M451,118.1l-10.1-4.3c2.7-11.9,2.8-24.2,0.2-36.1l10.8-4.3c2.2-0.9,3.3-3.4,2.4-5.6l-7.6-19
		c-0.9-2.2-3.4-3.3-5.6-2.4L430,50.9c-6.5-10.2-15.1-18.9-25.2-25.4l4.6-10.8c0.5-1,0.5-2.2,0-3.3c-0.4-1.1-1.2-1.9-2.3-2.4L388.4,1
		c-2.2-0.9-4.7,0.1-5.6,2.2L378,14.3c-11.5-2.6-23.4-2.7-34.9-0.3l-4.5-11.2c-0.9-2.2-3.4-3.3-5.6-2.4l-19,7.6
		c-2.2,0.9-3.3,3.4-2.4,5.6l4.5,11.3c-10,6.2-18.7,14.6-25.3,24.4l-10.8-4.6c-2.2-0.9-4.7,0.1-5.7,2.2l-8.1,18.8
		c-0.4,1.1-0.5,2.2,0,3.3c0.4,1.1,1.2,1.9,2.3,2.4l10.5,4.6c-2.8,11.6-3.1,23.8-0.8,35.5l-10.1,4c-2.2,0.9-3.3,3.4-2.4,5.6l7.5,19
		c0.9,2.2,3.4,3.3,5.6,2.4l9.8-3.9c6.2,10.3,14.7,19.1,24.7,25.9l-4.3,9.9c-0.9,2.2,0.1,4.7,2.2,5.7l18.8,8.1c1,0.4,2.2,0.5,3.3,0
		c1.1-0.4,1.9-1.2,2.4-2.3l4.1-9.6c12,3,24.6,3.2,36.7,0.7l3.8,9.6c0.9,2.2,3.4,3.3,5.6,2.4l19-7.6c2.2-0.9,3.3-3.4,2.4-5.6
		l-3.8-9.6c10.4-6.4,19.3-15.2,26-25.5l9.9,4.3c2.1,0.9,4.8-0.1,5.7-2.2l8.1-18.8C454.2,121.6,453.1,119.1,451,118.1z M376.8,136.5
		c-23.3,9.3-49.6-2.1-58.9-25.4c-9.3-23.3,2.1-49.6,25.4-58.9c23.3-9.2,49.6,2.1,58.9,25.4C411.4,100.9,400.1,127.2,376.8,136.5z
		 M376,88c3.5,8.8-0.8,18.8-9.6,22.4c-8.8,3.5-18.8-0.8-22.4-9.6c-3.5-8.8,0.8-18.8,9.6-22.4C362.5,74.8,372.5,79.1,376,88z"/>
</g>
<rect x="88.5" y="150.2" class="st1" width="327.9" height="206.5"/>
<text transform="matrix(1 0 0 1 88.4522 204.2455)"><tspan x="0" y="0" class="st2 st3 st4">Tech </tspan><tspan x="0" y="86.4" class="st2 st3 st4">Watch</tspan></text>
</svg>
