<?xml version="1.0" encoding="utf-8"?>
<!-- Generator: Adobe Illustrator 23.1.1, SVG Export Plug-In . SVG Version: 6.00 Build 0)  -->
<svg version="1.1" id="Layer_1" xmlns="http://www.w3.org/2000/svg" xmlns:xlink="http://www.w3.org/1999/xlink" x="0px" y="0px"
	 viewBox="0 0 792 612" style="enable-background:new 0 0 792 612;" xml:space="preserve">
<style type="text/css">
	.st0{fill:#BE6828;}
	.st1{fill:#0C4774;}
	.st2{fill:none;}
	.st3{font-family:'Krungthep';}
	.st4{font-size:72px;}
</style>
<path class="st0" d="M194.9,234.5"/>
<g>
	<path class="st1" d="M522.9,298.4l-16.2-3.4c0-15.1-3.6-30.2-10.6-44.1l13.3-7.7c1.3-0.8,2.2-2,2.5-3.3c0.3-1.4,0-2.9-0.9-4.1
		L495.2,214c-1.8-2.5-5.5-3.3-8.2-1.7l-13.7,8c-11.5-10.9-25.2-19.5-40.3-25.3l3.1-14.8c0.6-2.9-1.5-5.8-4.7-6.5l-27.7-5.8
		c-3.2-0.7-6.3,1.1-6.9,4l-3.1,14.8c-16.3-0.8-32.5,1.6-47.4,7l-9.1-12.5c-1.8-2.5-5.5-3.3-8.2-1.7L305.5,193
		c-1.3,0.8-2.2,2-2.5,3.3c-0.3,1.4,0,2.9,0.9,4.1l8.9,12.2c-11.9,9.9-21.2,22.2-27.2,35.9l-14.7-3.1c-3.2-0.7-6.3,1.1-6.9,4
		l-5.2,24.9c-0.6,2.9,1.5,5.8,4.7,6.5l14.2,3c-0.4,15,2.9,30.1,9.6,44.3l-12.3,7.1c-2.7,1.6-3.4,4.9-1.6,7.4l15.9,21.7
		c0.9,1.2,2.3,2.1,3.8,2.4s3.1,0.1,4.4-0.7l11.9-6.9c11.8,11.7,26.2,20.9,42.1,27l-2.6,12.6c-0.6,2.9,1.5,5.8,4.7,6.5l27.7,5.8
		c3.2,0.7,6.3-1.1,6.9-4l2.6-12.6c16.9,0.8,33.7-1.8,49.1-7.6l8.3,11.4c1.8,2.4,5.6,3.2,8.2,1.7l23.3-13.5c2.7-1.6,3.4-4.9,1.6-7.4
		l-8.5-11.7c12-10.3,21.1-22.9,26.9-36.9l15.7,3.3c3.2,0.7,6.3-1.1,6.9-4l5.2-24.9C528.2,301.9,526.1,299,522.9,298.4z M381.6,344.9
		c-33.9-7.1-56.2-37.7-49.8-68.2c6.4-30.5,39.1-49.5,73-42.4s56.2,37.7,49.8,68.2C448.2,333,415.5,352,381.6,344.9z M416.5,294.5
		c-2.4,11.6-14.8,18.8-27.7,16.1c-12.9-2.7-21.3-14.3-18.9-25.9s14.8-18.8,27.7-16.1C410.5,271.3,419,282.9,416.5,294.5z
		 M632.9,217.2l-7.2-4.7c3.8-7.8,5.7-16.4,5.5-25.1l8.9-1.2c1.8-0.3,3-1.8,2.7-3.5l-3.1-14.5c-0.4-1.7-2.1-2.8-4-2.6l-9.2,1.3
		c-3.5-8.1-8.9-15.6-15.8-21.8l5.2-6.7c0.5-0.7,0.7-1.5,0.5-2.3s-0.7-1.5-1.4-2l-13.3-8.7c-1.5-1-3.7-0.7-4.7,0.6l-5.3,6.9
		c-8.5-3.7-17.7-5.7-26.9-5.9l-1.8-8.6c-0.4-1.7-2.1-2.8-4-2.6l-15.8,2.2c-1.8,0.3-3,1.8-2.7,3.5l1.8,8.6
		c-8.7,2.7-16.6,7.1-23.1,12.9l-7.7-5c-1.6-1-3.7-0.7-4.7,0.6l-9,11.8c-0.5,0.7-0.7,1.5-0.5,2.3s0.7,1.5,1.4,2l7.5,4.9
		c-3.9,7.6-5.9,16-5.8,24.6l-8.4,1.2c-1.8,0.3-3,1.8-2.7,3.5l3.1,14.5c0.4,1.7,2.1,2.8,4,2.6l8.1-1.1c3.3,8.2,8.5,15.7,15.3,22
		l-4.7,6.2c-1,1.4-0.6,3.3,0.9,4.3l13.3,8.7c0.7,0.5,1.7,0.7,2.5,0.6c0.9-0.1,1.7-0.6,2.2-1.2l4.6-6c8.9,4,18.5,6.2,28.3,6.5
		l1.5,7.3c0.4,1.7,2.1,2.8,4,2.6l15.8-2.2c1.8-0.3,3-1.8,2.7-3.5l-1.5-7.3c9-2.8,17.2-7.4,23.8-13.5l7,4.6c1.5,1,3.7,0.7,4.7-0.6
		l9-11.8C634.9,220.2,634.5,218.3,632.9,217.2z M572.9,218c-19.4,2.7-38.1-9.5-41.9-27.3c-3.8-17.7,8.9-34.2,28.3-36.9
		c19.4-2.7,38.1,9.5,41.9,27.3C604.9,198.8,592.2,215.3,572.9,218z M579.4,184.1c1.4,6.7-3.4,13-10.7,14s-14.5-3.6-15.9-10.3
		s3.4-13,10.7-14C570.8,172.7,578,177.3,579.4,184.1z"/>
</g>
<rect x="240.5" y="285.2" class="st2" width="439.5" height="106.1"/>
<text transform="matrix(1 0 0 1 240.474 339.225)" class="st0 st3 st4">Tech Watch</text>
</svg>
